<svg width="48" height="48" viewBox="0 0 48 48" fill="none" xmlns="http://www.w3.org/2000/svg">
<rect width="48" height="48" rx="12" fill="#5160FC"/>
<path d="M14.4865 10.7709L30.3529 17.5702L24.0001 20.2917L8.22487 13.5309C8.58007 13.1685 9.01447 12.8757 9.50887 12.6861L14.4865 10.7709ZM17.6977 9.53735L21.4177 8.10695C23.0807 7.46761 24.9218 7.46761 26.5849 8.10695L38.4937 12.6861C38.9857 12.8781 39.4201 13.1661 39.7753 13.5309L33.4009 16.2621L17.6977 9.53735ZM40.7857 15.7101L25.2001 22.3893V40.2694C25.6721 40.1894 26.1337 40.063 26.5849 39.8902L38.4937 35.3086C39.1726 35.0471 39.7564 34.5861 40.1681 33.9863C40.5798 33.3865 40.8002 32.6761 40.8001 31.9486V16.0461C40.8001 15.9341 40.7945 15.8221 40.7833 15.7101M22.8001 40.2694V22.3893L7.21687 15.7101C7.20735 15.8219 7.20175 15.934 7.20007 16.0461V31.9486C7.20017 32.6763 7.42086 33.387 7.83303 33.9869C8.2452 34.5867 8.8295 35.0475 9.50887 35.3086L21.4153 39.8902C21.8665 40.063 22.3281 40.1894 22.8001 40.2694Z" fill="white"/>
</svg>
