<svg width="478" height="242" viewBox="0 0 478 242" fill="none" xmlns="http://www.w3.org/2000/svg">
<g clip-path="url(#clip0_433_2543)">
<path d="M159.146 160.116C247.04 160.116 318.292 158.381 318.292 156.241C318.292 154.101 247.04 152.366 159.146 152.366C71.2516 152.366 -0.000732422 154.101 -0.000732422 156.241C-0.000732422 158.381 71.2516 160.116 159.146 160.116Z" fill="#F2F2F2"/>
<g opacity="0.7">
<path d="M84.9746 119.91H24.2148V153.334H84.9746V119.91Z" fill="#E3C991"/>
<path opacity="0.1" d="M64.0734 125.723H45.6023V129.598H64.0734V125.723Z" fill="black"/>
<path opacity="0.1" d="M61.7642 126.207H47.9111V129.114H61.7642V126.207Z" fill="black"/>
<path d="M146.707 119.91H85.9468V153.334H146.707V119.91Z" fill="#E3C991"/>
<path opacity="0.1" d="M125.805 125.723H107.334V129.598H125.805V125.723Z" fill="black"/>
<path opacity="0.1" d="M123.497 126.207H109.644V129.114H123.497V126.207Z" fill="black"/>
<path d="M84.9746 85.5161H24.2148V118.941H84.9746V85.5161Z" fill="#E3C991"/>
<path opacity="0.1" d="M64.0734 91.3296H45.6023V95.2048H64.0734V91.3296Z" fill="black"/>
<path opacity="0.1" d="M61.7642 91.8137H47.9111V94.7202H61.7642V91.8137Z" fill="black"/>
<path d="M146.707 85.5161H85.9468V118.941H146.707V85.5161Z" fill="#E3C991"/>
<path opacity="0.1" d="M125.805 91.3296H107.334V95.2048H125.805V91.3296Z" fill="black"/>
<path opacity="0.1" d="M123.497 91.8137H109.644V94.7202H123.497V91.8137Z" fill="black"/>
<path d="M84.9746 50.6384H24.2148V84.0633H84.9746V50.6384Z" fill="#E3C991"/>
<path opacity="0.1" d="M64.0734 56.4512H45.6023V60.3264H64.0734V56.4512Z" fill="#090814"/>
<path opacity="0.1" d="M61.7642 56.9353H47.9111V59.8417H61.7642V56.9353Z" fill="black"/>
<path d="M146.707 50.6384H85.9468V84.0633H146.707V50.6384Z" fill="#E3C991"/>
<path opacity="0.1" d="M125.805 56.4512H107.334V60.3264H125.805V56.4512Z" fill="black"/>
<path opacity="0.1" d="M123.497 56.9353H109.644V59.8417H123.497V56.9353Z" fill="black"/>
<path d="M146.707 15.76H85.9468V49.1848H146.707V15.76Z" fill="#E3C991"/>
<path opacity="0.1" d="M125.805 21.5728H107.334V25.448H125.805V21.5728Z" fill="black"/>
<path opacity="0.1" d="M123.497 22.0576H109.644V24.964H123.497V22.0576Z" fill="black"/>
</g>
<g opacity="0.7">
<path d="M208.439 119.425H147.679V152.85H208.439V119.425Z" fill="#E3C991"/>
<path opacity="0.1" d="M187.538 125.239H169.067V129.114H187.538V125.239Z" fill="black"/>
<path opacity="0.1" d="M185.229 125.723H171.375V128.629H185.229V125.723Z" fill="black"/>
<path d="M270.171 119.425H209.411V152.85H270.171V119.425Z" fill="#65617D"/>
<path opacity="0.1" d="M249.27 125.239H230.799V129.114H249.27V125.239Z" fill="black"/>
<path opacity="0.1" d="M246.961 125.723H233.108V128.629H246.961V125.723Z" fill="black"/>
<path d="M208.439 85.0315H147.679V118.456H208.439V85.0315Z" fill="#E3C991"/>
<path opacity="0.1" d="M187.538 90.845H169.067V94.7202H187.538V90.845Z" fill="black"/>
<path opacity="0.1" d="M185.229 91.3291H171.375V94.2355H185.229V91.3291Z" fill="black"/>
<path d="M270.171 85.0315H209.411V118.456H270.171V85.0315Z" fill="#E3C991"/>
<path opacity="0.1" d="M249.27 90.845H230.799V94.7202H249.27V90.845Z" fill="black"/>
<path opacity="0.1" d="M246.961 91.3291H233.108V94.2355H246.961V91.3291Z" fill="black"/>
<path d="M208.439 50.1538H147.679V83.5786H208.439V50.1538Z" fill="#E3C991"/>
<path opacity="0.1" d="M187.538 55.9666H169.067V59.8418H187.538V55.9666Z" fill="black"/>
<path opacity="0.1" d="M185.229 56.4507H171.375V59.3571H185.229V56.4507Z" fill="black"/>
<path d="M270.171 50.1538H209.411V83.5786H270.171V50.1538Z" fill="#E3C991"/>
<path opacity="0.1" d="M249.27 55.9666H230.799V59.8418H249.27V55.9666Z" fill="black"/>
<path opacity="0.1" d="M246.961 56.4507H233.108V59.3571H246.961V56.4507Z" fill="black"/>
<path d="M270.171 15.2754H209.411V48.7002H270.171V15.2754Z" fill="#E3C991"/>
<path opacity="0.1" d="M249.27 21.0881H230.799V24.9634H249.27V21.0881Z" fill="black"/>
<path opacity="0.1" d="M246.961 21.573H233.108V24.4794H246.961V21.573Z" fill="black"/>
</g>
<path d="M303.886 92.1775C303.846 91.8105 303.714 91.4594 303.503 91.1565C303.291 90.8535 303.007 90.6083 302.675 90.4435C302.396 90.325 302.096 90.2637 301.793 90.2632C301.49 90.2627 301.19 90.323 300.91 90.4405C300.631 90.558 300.378 90.7303 300.167 90.9472C299.956 91.1641 299.791 91.4211 299.681 91.7029L288.886 114.34L286.455 203.473H290.344L291.802 114.538L303.682 93.5809C303.896 93.1462 303.968 92.6551 303.886 92.1775Z" fill="#3F3D56"/>
<path d="M478 223.605C474.815 226.379 471.386 228.861 467.753 231.022C467.697 231.101 467.633 231.176 467.564 231.244C467.178 231.57 466.72 231.8 466.227 231.913C454.182 238.603 440.606 242.078 426.816 241.999H159.559C128.936 238.86 110.251 234.698 110.251 230.13C110.251 226.589 121.47 223.29 140.787 220.529C142.79 220.238 144.878 219.957 147.052 219.686C148.391 219.518 149.76 219.357 151.16 219.202L153.537 218.925C155.3 218.727 157.109 218.532 158.966 218.339H159.117L161.061 218.146C162.704 217.976 164.381 217.815 166.092 217.661L167.336 217.55L170.51 217.269C172.571 217.085 174.678 216.909 176.829 216.741C178.615 216.602 180.43 216.463 182.274 216.324C200.968 214.944 222.521 213.902 245.975 213.227L252.673 213L254.928 212.952L259.692 212.845L261.604 212.806L263.612 212.768L265.041 212.743L271.749 212.637L275.195 212.589H275.9C284.05 212.492 292.352 212.442 300.807 212.438C317.519 212.438 333.725 212.637 349.167 213.015C358.033 213.228 366.629 213.499 374.953 213.829H375.031C399.034 214.769 420.518 216.151 438.299 217.874L438.625 217.908C443.189 218.348 447.51 218.819 451.564 219.303C455.38 219.758 458.962 220.238 462.287 220.727C463.439 220.897 464.557 221.071 465.646 221.241L465.923 221.289C470.529 222.031 474.573 222.786 478 223.605Z" fill="#F2F2F2"/>
<path d="M364.879 42.0983C367.854 41.2992 370.503 39.6277 373.099 37.9759L382.145 32.2357C379.69 32.0422 377.571 30.2981 376.312 28.1866C375.053 26.0751 374.533 23.6183 374.105 21.2061C370.217 22.7173 366.848 25.2802 363.709 27.9877C362.464 29.0596 359.82 30.6762 359.436 32.3477C359.052 34.0191 361.502 35.375 362.45 36.4944C362.774 36.8666 365.841 41.8321 364.879 42.0983Z" fill="#ED9DA0"/>
<path d="M315.448 89.5129C313.854 90.3269 312.157 91.1599 310.374 91.0438C308.764 90.8535 307.263 90.1401 306.101 89.0139C305.129 88.1713 304.129 87.1197 302.849 87.2073C301.999 87.3607 301.218 87.7737 300.613 88.3892L297.088 91.3296C296.495 91.7269 296.046 92.3046 295.81 92.9767C295.74 93.4327 295.768 93.8982 295.892 94.3426C296.053 95.1275 296.32 96.0427 297.078 96.3076C297.836 96.5726 298.663 96.0022 299.464 95.7842C299.954 95.6593 300.469 95.6685 300.954 95.8109C301.439 95.9534 301.877 96.2237 302.221 96.5935C302.507 96.8742 302.68 97.2499 302.707 97.6492C302.707 98.5263 301.734 99.1027 300.84 99.1462C299.945 99.1897 299.09 98.8991 298.206 98.9527C298.152 98.9459 298.098 98.9498 298.046 98.9641C297.994 98.9785 297.946 99.0031 297.904 99.0364C297.862 99.0697 297.827 99.111 297.801 99.158C297.775 99.205 297.759 99.2566 297.753 99.3099C297.698 99.6159 297.722 99.9308 297.821 100.225C297.921 100.52 298.093 100.785 298.322 100.996C298.784 101.416 299.322 101.745 299.907 101.964C300.587 102.3 301.32 102.513 302.074 102.594C303.568 102.692 304.938 101.868 306.352 101.388C308.257 100.749 310.309 100.73 312.321 100.733C314.333 100.737 316.375 100.767 318.305 100.205C320.235 99.6428 322.069 98.3983 322.821 96.5428C322.91 96.3697 322.939 96.172 322.903 95.9807C322.828 95.7768 322.684 95.6055 322.495 95.4966C319.782 93.4959 318.684 91.064 315.632 89.6254L315.448 89.5129Z" fill="#ED9DA0"/>
<path d="M372.37 37.8502C371.615 37.3652 370.76 37.0593 369.868 36.956C368.976 36.8528 368.073 36.955 367.227 37.2548C365.534 37.8627 364.014 38.8718 362.799 40.1951C361.586 41.428 360.536 42.8101 359.673 44.308C358.847 45.7615 358.215 47.2823 357.389 48.7304C355.859 51.2727 354.091 53.6652 352.11 55.8759C350.985 57.3393 349.665 58.643 348.187 59.7512C346.661 60.7878 344.955 61.4226 343.919 62.8612C343.594 63.3167 343.36 63.83 343.04 64.2903C342.024 65.7724 340.298 66.5674 338.797 67.56C334.491 70.4182 331.813 75.1753 327.788 78.4158C326.055 79.8109 324.094 80.906 322.388 82.3297C320.798 83.6522 319.471 85.2361 317.887 86.5926C316.302 87.9491 314.44 89.0679 312.375 89.1941C313.755 92.2608 315.403 95.2678 317.77 97.6568C320.137 100.046 323.685 101.571 326.918 100.634C327.501 100.504 328.047 100.245 328.516 99.8763C328.984 99.5072 329.364 99.0376 329.625 98.5024C329.763 97.9347 329.955 97.3816 330.199 96.8505C330.524 96.4244 330.945 96.0808 331.428 95.8478C344.404 88.2988 356.773 79.7581 368.424 70.3027C371.549 67.7642 374.65 65.4925 377.858 63.0381C379.009 62.2251 380.072 61.2967 381.032 60.2674C382.37 58.6752 383.206 56.7242 383.434 54.6599C383.663 52.5955 383.274 50.51 382.316 48.6655C381.456 47.2544 380.47 45.9234 379.37 44.6885C377.369 42.0937 375.013 39.7918 372.37 37.8502Z" fill="#5160FC"/>
<path opacity="0.1" d="M372.37 37.8502C371.615 37.3652 370.76 37.0593 369.868 36.956C368.976 36.8528 368.073 36.955 367.227 37.2548C365.534 37.8627 364.014 38.8718 362.799 40.1951C361.586 41.428 360.536 42.8101 359.673 44.308C358.847 45.7615 358.215 47.2823 357.389 48.7304C355.859 51.2727 354.091 53.6652 352.11 55.8759C350.985 57.3393 349.665 58.643 348.187 59.7512C346.661 60.7878 344.955 61.4226 343.919 62.8612C343.594 63.3167 343.36 63.83 343.04 64.2903C342.024 65.7724 340.298 66.5674 338.797 67.56C334.491 70.4182 331.813 75.1753 327.788 78.4158C326.055 79.8109 324.094 80.906 322.388 82.3297C320.798 83.6522 319.471 85.2361 317.887 86.5926C316.302 87.9491 314.44 89.0679 312.375 89.1941C313.755 92.2608 315.403 95.2678 317.77 97.6568C320.137 100.046 323.685 101.571 326.918 100.634C327.501 100.504 328.047 100.245 328.516 99.8763C328.984 99.5072 329.364 99.0376 329.625 98.5024C329.763 97.9347 329.955 97.3816 330.199 96.8505C330.524 96.4244 330.945 96.0808 331.428 95.8478C344.404 88.2988 356.773 79.7581 368.424 70.3027C371.549 67.7642 374.65 65.4925 377.858 63.0381C379.009 62.2251 380.072 61.2967 381.032 60.2674C382.37 58.6752 383.206 56.7242 383.434 54.6599C383.663 52.5955 383.274 50.51 382.316 48.6655C381.456 47.2544 380.47 45.9234 379.37 44.6885C377.369 42.0937 375.013 39.7918 372.37 37.8502Z" fill="black"/>
<path d="M351.482 217.553C350.631 218.038 349.586 218.309 348.989 219.093C348.795 219.345 348.663 219.641 348.454 219.883C347.808 220.639 346.662 220.673 345.761 221.104C345.044 221.442 344.459 222.072 343.696 222.271C343.239 222.379 342.768 222.415 342.301 222.378L337.576 222.237C336.079 222.194 334.324 222.271 333.453 223.488C333.171 223.933 332.97 224.426 332.861 224.941C332.496 226.332 332.2 227.906 332.963 229.127C333.876 230.58 335.879 230.876 337.605 230.973C344.271 231.34 350.955 231.211 357.602 230.585C358.501 230.471 359.408 230.433 360.314 230.474C361.031 230.533 361.738 230.692 362.448 230.813C366.033 231.419 369.695 231.065 373.311 230.707C373.923 230.677 374.525 230.549 375.096 230.328C375.38 230.213 375.632 230.031 375.829 229.797C376.027 229.564 376.165 229.286 376.231 228.987C376.381 227.989 375.443 227.141 375.341 226.138C375.268 225.431 375.608 224.641 375.222 224.04C375.076 223.863 374.913 223.701 374.736 223.556C374.154 222.814 373.806 221.917 373.734 220.979L372.878 216.005C372.854 215.654 372.71 215.322 372.469 215.065C372.291 214.937 372.084 214.852 371.867 214.818C368.162 213.984 364.366 214.745 360.687 215.21C358.793 215.487 356.878 215.583 354.966 215.496C354.139 215.443 353.819 215.346 353.201 215.884C352.584 216.422 352.255 217.105 351.482 217.553Z" fill="#3F3D56"/>
<path d="M440.926 223.542C440.276 223.904 439.58 224.177 438.856 224.351C436.947 224.907 435.042 225.487 433.14 226.091C432.633 226.215 432.158 226.443 431.745 226.759C431.142 227.419 430.826 228.29 430.864 229.182C430.801 229.673 430.86 230.172 431.035 230.635C431.262 231.07 431.597 231.44 432.007 231.711C434.184 233.353 437.026 233.861 439.76 233.861C442.494 233.861 445.204 233.401 447.936 233.328C451.236 233.241 454.624 233.706 457.798 232.786C458.404 232.563 459.033 232.41 459.674 232.33C460.1 232.324 460.526 232.351 460.947 232.413C462.65 232.58 464.369 232.424 466.012 231.952C466.507 231.843 466.967 231.615 467.354 231.288C467.545 231.123 467.681 230.904 467.745 230.661C467.809 230.417 467.798 230.16 467.712 229.922C467.537 229.53 467.09 229.244 467.085 228.813C467.109 228.606 467.163 228.403 467.246 228.212C467.445 227.548 467.127 226.856 466.901 226.202C466.274 224.332 466.376 222.181 465.253 220.558C464.13 218.935 462.069 218.267 460.11 218.01C458.518 217.786 456.899 217.832 455.323 218.146C453.549 218.524 451.891 219.314 450.151 219.817C448.131 220.396 446.021 220.595 443.929 220.403C442.538 220.284 443.015 220.505 442.544 221.668C442.21 222.443 441.645 223.097 440.926 223.542Z" fill="#3F3D56"/>
<path d="M363.255 35.3785C371.041 35.3785 377.352 29.089 377.352 21.3305C377.352 13.572 371.041 7.28247 363.255 7.28247C355.47 7.28247 349.159 13.572 349.159 21.3305C349.159 29.089 355.47 35.3785 363.255 35.3785Z" fill="#ED9DA0"/>
<path d="M465.449 218.519C461.074 222.263 455.168 223.9 449.408 223.959C446.978 223.983 444.455 223.721 442.385 222.467C442.239 221.672 442.18 220.815 442.035 220.02C439.522 219.497 437.573 217.46 436.358 215.201C435.144 212.942 434.526 210.434 433.622 208.041C432.242 204.398 430.219 201.041 428.197 197.709C426.34 194.637 424.478 191.556 422.364 188.658C420.964 186.72 419.448 184.898 418.062 182.966C414.138 177.585 411.321 171.484 409.775 165.013C409.539 163.772 409.202 162.552 408.769 161.365C407.932 159.341 406.402 157.693 405.22 155.848C403.947 153.856 403.075 151.637 402.651 149.313C402.412 147.996 402.005 146.574 400.679 146.436C397.889 151.837 395.045 157.326 390.827 161.72C390.164 162.354 389.557 163.045 389.014 163.784C388.578 164.501 388.188 165.245 387.847 166.012C387.192 167.386 386.323 168.649 385.27 169.751C384.388 170.691 383.226 171.323 381.955 171.553C382.893 176.208 382.335 181.038 380.361 185.359C379.773 186.638 379.068 187.86 378.514 189.152C376.249 194.481 376.775 200.492 376.536 206.271C376.515 207.482 376.372 208.688 376.108 209.87C375.52 212.234 374.305 214.748 374.893 217.112C368.798 219.434 362.026 219.287 355.571 218.308C354.309 218.193 353.083 217.823 351.969 217.219C351.054 216.573 350.255 215.777 349.607 214.864C349.358 214.598 349.174 214.278 349.069 213.929C348.816 212.825 350.041 211.992 350.61 211.023C351.179 210.054 351.281 208.519 350.498 207.724C350.887 201.383 352.649 195.192 353.036 188.832C353.191 186.313 353.128 183.784 353.245 181.261C353.362 178.737 353.634 176.281 353.916 173.801C354.558 168.138 356.113 162.587 355.894 156.895C355.828 155.143 356.232 153.405 357.066 151.862C357.768 150.688 358.565 149.573 359.448 148.527C362.435 144.686 366.02 140.835 367.084 136.092C367.633 133.646 368.848 131.408 370.054 129.209C370.689 127.854 371.569 126.628 372.649 125.59C373.268 125.164 373.843 124.677 374.365 124.137C375.162 123.115 375.192 121.714 375.663 120.494C375.906 119.864 376.28 119.283 376.46 118.634C376.608 117.916 376.682 117.186 376.679 116.454C376.834 114.109 377.739 111.842 378.691 109.696C376.451 108.403 374.473 106.704 372.859 104.687C372.316 104.032 371.844 103.322 371.449 102.57C370.448 100.605 370.219 98.3606 369.748 96.2044C368.625 91.0597 366.043 86.2204 365.685 80.9649C365.578 79.3613 365.685 77.7048 365.126 76.1887C364.868 75.5471 364.566 74.9239 364.222 74.3237C363.883 73.7342 363.625 73.1022 363.454 72.4445C363.143 71.0154 363.573 69.5381 363.454 68.0845C363.334 66.8007 362.788 65.5997 362.516 64.3451C362.238 62.7123 362.19 61.0487 362.375 59.4028C362.494 57.4652 362.919 55.4644 362.754 53.5512C362.485 50.3854 362.889 47.1987 363.939 44.1988C364.988 41.1988 366.661 38.4531 368.847 36.1406L368.959 36.0293C369.887 35.0604 370.903 34.203 371.739 33.1758C372.874 31.8003 373.683 30.1819 374.883 28.8451C375.409 28.2496 376.001 27.7137 376.522 27.1182C376.999 26.4883 377.527 25.8985 378.102 25.3551C378.691 24.8091 380.624 26.1887 380.97 26.8324C381.981 26.9098 382.882 27.0504 383.886 27.1302C384.352 27.1523 384.815 27.2237 385.266 27.3433C386.186 27.7191 387.037 28.2445 387.784 28.8981C389.806 30.3176 392.29 30.9762 394.278 32.4392C397.195 34.5948 398.653 38.1556 400.413 41.3479C402.743 45.6251 406.537 49.2633 408.19 53.8364L410.469 60.0566C411.869 64.15 413.542 68.1456 415.476 72.0169C418.29 77.3457 422.101 82.1463 424.361 87.7215C424.587 88.2807 425.006 88.7411 425.542 89.0196C428.62 93.3214 431.356 97.8566 433.723 102.584C434.973 105.085 436.153 107.68 436.513 110.444C437.043 114.353 435.975 118.304 434.486 121.958C434.246 122.481 434.083 123.036 434.001 123.605C433.903 124.53 434.258 125.441 434.356 126.366C434.449 127.23 434.32 128.104 433.981 128.905C433.679 129.467 433.424 130.054 433.218 130.658C432.956 131.772 433.422 132.906 433.675 134.02C434.531 137.794 434.375 141.702 434.161 145.568C434.049 147.506 435.619 149.042 436.927 150.461C439.357 153.121 441.253 156.231 443.085 159.334C444.082 160.909 444.922 162.576 445.595 164.313C446.203 166.322 446.656 168.374 446.951 170.451C448.186 176.801 452.23 182.416 453.328 188.786C453.837 191.705 455.134 194.429 457.081 196.668C457.667 197.273 458.208 197.921 458.7 198.605C459.035 199.149 459.303 199.731 459.497 200.339C459.975 201.754 460.2 203.241 460.163 204.733C460.085 205.447 460.126 206.169 460.282 206.87C460.739 208.347 462.374 209.161 463.043 210.551C463.713 211.942 463.252 213.725 463.53 215.304C463.739 216.579 464.425 217.727 465.45 218.519L465.449 218.519Z" fill="#5160FC"/>
<path d="M318.365 85.1528C316.771 85.9668 315.074 86.7998 313.29 86.6837C311.681 86.4934 310.179 85.78 309.017 84.6538C308.045 83.8106 307.046 82.7596 305.765 82.8472C304.915 83.0005 304.134 83.4136 303.529 84.0291L300.004 86.9695C299.411 87.3668 298.962 87.9445 298.726 88.6166C298.656 89.0726 298.684 89.5381 298.808 89.9825C298.968 90.7674 299.236 91.6826 299.994 91.9475C300.752 92.2125 301.579 91.6421 302.38 91.4241C302.87 91.2992 303.385 91.3084 303.87 91.4508C304.355 91.5933 304.793 91.8636 305.137 92.2334C305.423 92.514 305.596 92.8897 305.623 93.2891C305.623 94.1662 304.651 94.7426 303.756 94.7861C302.862 94.8296 302.006 94.539 301.122 94.5926C301.069 94.5858 301.015 94.5897 300.963 94.604C300.911 94.6184 300.863 94.643 300.82 94.6763C300.778 94.7095 300.743 94.7509 300.717 94.7979C300.692 94.8449 300.675 94.8965 300.67 94.9498C300.615 95.2558 300.638 95.5706 300.738 95.8653C300.837 96.1599 301.009 96.4248 301.239 96.6356C301.7 97.0557 302.238 97.3845 302.823 97.6044C303.503 97.9395 304.237 98.1527 304.991 98.2344C306.485 98.3315 307.854 97.5079 309.268 97.028C311.174 96.3885 313.225 96.3694 315.237 96.373C317.25 96.3766 319.291 96.4069 321.221 95.8448C323.15 95.2827 324.985 94.0382 325.737 92.1827C325.826 92.0096 325.855 91.8119 325.819 91.6206C325.744 91.4167 325.6 91.2455 325.411 91.1365C322.698 89.1358 321.6 86.7039 318.548 85.2653L318.365 85.1528Z" fill="#ED9DA0"/>
<path d="M375.286 33.4903C374.532 33.0053 373.676 32.6994 372.784 32.5962C371.893 32.4929 370.989 32.5951 370.143 32.8948C368.45 33.5027 366.93 34.5118 365.715 35.8352C364.502 37.0681 363.452 38.4502 362.59 39.948C361.763 41.4009 361.131 42.9223 360.305 44.3705C358.775 46.9128 357.008 49.3052 355.026 51.516C353.901 52.9794 352.582 54.2831 351.103 55.3912C349.577 56.4279 347.871 57.0627 346.835 58.5013C346.51 58.9568 346.277 59.4701 345.956 59.9304C344.94 61.4125 343.215 62.2074 341.714 63.2001C337.407 66.0583 334.729 70.8154 330.704 74.0558C328.971 75.451 327.01 76.5461 325.304 77.9698C323.715 79.2923 322.388 80.8762 320.803 82.2327C319.218 83.5891 317.357 84.708 315.291 84.8342C316.671 87.9008 318.319 90.9079 320.686 93.2969C323.054 95.6858 326.602 97.2108 329.834 96.2742C330.417 96.1445 330.963 95.8855 331.432 95.5166C331.901 95.1476 332.28 94.6781 332.541 94.143C332.679 93.5754 332.871 93.0222 333.115 92.4912C333.44 92.0649 333.861 91.7213 334.345 91.4885C347.321 83.9394 359.69 75.3988 371.34 65.9433C374.466 63.4049 377.567 61.1332 380.775 58.6787C381.925 57.8657 382.989 56.9373 383.949 55.9081C385.287 54.3158 386.123 52.3649 386.351 50.3005C386.58 48.2362 386.19 46.1507 385.233 44.3062C384.372 42.8951 383.387 41.564 382.287 40.3291C380.286 37.7338 377.93 35.4313 375.287 33.4891L375.286 33.4903Z" fill="#5160FC"/>
<path d="M258.992 234.233C267.046 234.233 273.574 227.726 273.574 219.7C273.574 211.674 267.046 205.167 258.992 205.167C250.938 205.167 244.409 211.674 244.409 219.7C244.409 227.726 250.938 234.233 258.992 234.233Z" fill="#3F3D56"/>
<path opacity="0.1" d="M258.992 234.233C267.046 234.233 273.574 227.726 273.574 219.7C273.574 211.674 267.046 205.167 258.992 205.167C250.938 205.167 244.409 211.674 244.409 219.7C244.409 227.726 250.938 234.233 258.992 234.233Z" fill="black"/>
<path d="M258.992 228.904C264.092 228.904 268.227 224.783 268.227 219.7C268.227 214.617 264.092 210.496 258.992 210.496C253.891 210.496 249.756 214.617 249.756 219.7C249.756 224.783 253.891 228.904 258.992 228.904Z" fill="#65617D"/>
<path opacity="0.1" d="M258.992 228.904C264.092 228.904 268.227 224.783 268.227 219.7C268.227 214.617 264.092 210.496 258.992 210.496C253.891 210.496 249.756 214.617 249.756 219.7C249.756 224.783 253.891 228.904 258.992 228.904Z" fill="black"/>
<path d="M247.811 196.933L257.377 218.489C257.52 218.812 257.752 219.088 258.047 219.284C258.341 219.48 258.686 219.588 259.04 219.595C259.394 219.602 259.743 219.508 260.045 219.324C260.347 219.14 260.591 218.874 260.746 218.557L272.115 195.479L247.811 196.933Z" fill="#3F3D56"/>
<path opacity="0.1" d="M247.811 196.933L257.377 218.489C257.52 218.812 257.752 219.088 258.047 219.284C258.341 219.48 258.686 219.588 259.04 219.595C259.394 219.602 259.743 219.508 260.045 219.324C260.347 219.14 260.591 218.874 260.746 218.557L272.115 195.479L247.811 196.933Z" fill="black"/>
<path d="M168.095 234.233C176.148 234.233 182.677 227.726 182.677 219.7C182.677 211.674 176.148 205.167 168.095 205.167C160.041 205.167 153.512 211.674 153.512 219.7C153.512 227.726 160.041 234.233 168.095 234.233Z" fill="#3F3D56"/>
<path opacity="0.1" d="M168.095 234.233C176.148 234.233 182.677 227.726 182.677 219.7C182.677 211.674 176.148 205.167 168.095 205.167C160.041 205.167 153.512 211.674 153.512 219.7C153.512 227.726 160.041 234.233 168.095 234.233Z" fill="black"/>
<path d="M168.095 228.904C173.195 228.904 177.33 224.783 177.33 219.7C177.33 214.617 173.195 210.496 168.095 210.496C162.994 210.496 158.859 214.617 158.859 219.7C158.859 224.783 162.994 228.904 168.095 228.904Z" fill="#65617D"/>
<path opacity="0.1" d="M168.095 228.904C173.195 228.904 177.33 224.783 177.33 219.7C177.33 214.617 173.195 210.496 168.095 210.496C162.994 210.496 158.859 214.617 158.859 219.7C158.859 224.783 162.994 228.904 168.095 228.904Z" fill="black"/>
<path d="M156.915 196.933L166.481 218.489C166.623 218.812 166.855 219.088 167.15 219.284C167.445 219.48 167.789 219.588 168.143 219.595C168.497 219.602 168.846 219.508 169.149 219.324C169.451 219.14 169.694 218.874 169.849 218.557L181.219 195.479L156.915 196.933Z" fill="#3F3D56"/>
<path opacity="0.1" d="M156.915 196.933L166.481 218.489C166.623 218.812 166.855 219.088 167.15 219.284C167.445 219.48 167.789 219.588 168.143 219.595C168.497 219.602 168.846 219.508 169.149 219.324C169.451 219.14 169.694 218.874 169.849 218.557L181.219 195.479L156.915 196.933Z" fill="black"/>
<path d="M306.316 93.1462C306.276 92.7793 306.145 92.4282 305.933 92.1252C305.721 91.8222 305.437 91.5771 305.106 91.4122C304.827 91.2938 304.527 91.2325 304.223 91.2319C303.92 91.2314 303.62 91.2917 303.341 91.4092C303.061 91.5267 302.808 91.6991 302.597 91.9159C302.386 92.1328 302.221 92.3898 302.112 92.6716L293.747 113.371L291.316 206.377H295.204L296.663 113.567L306.112 94.5497C306.327 94.1146 306.399 93.623 306.317 93.145L306.316 93.1462Z" fill="#3F3D56"/>
<path d="M134.312 199.113L147.436 190.878L289.128 189.667L292.773 199.113H134.312Z" fill="#5160FC"/>
<path d="M134.312 207.832V199.112L295.338 197.564L295.183 203.474H137.228V207.834L134.312 207.832Z" fill="#3F3D56"/>
<path d="M154.727 239.319C162.781 239.319 169.31 232.813 169.31 224.786C169.31 216.76 162.781 210.254 154.727 210.254C146.674 210.254 140.145 216.76 140.145 224.786C140.145 232.813 146.674 239.319 154.727 239.319Z" fill="#3F3D56"/>
<path d="M154.727 233.991C159.828 233.991 163.963 229.87 163.963 224.787C163.963 219.703 159.828 215.583 154.727 215.583C149.627 215.583 145.492 219.703 145.492 224.787C145.492 229.87 149.627 233.991 154.727 233.991Z" fill="#65617D"/>
<path d="M143.548 202.019L153.114 223.575C153.256 223.898 153.488 224.174 153.783 224.37C154.077 224.566 154.422 224.674 154.776 224.681C155.13 224.688 155.479 224.594 155.781 224.41C156.084 224.226 156.327 223.96 156.482 223.643L167.852 200.565L143.548 202.019Z" fill="#3F3D56"/>
<path d="M267.984 239.319C276.038 239.319 282.567 232.813 282.567 224.786C282.567 216.76 276.038 210.254 267.984 210.254C259.93 210.254 253.401 216.76 253.401 224.786C253.401 232.813 259.93 239.319 267.984 239.319Z" fill="#3F3D56"/>
<path d="M267.984 233.991C273.085 233.991 277.22 229.87 277.22 224.787C277.22 219.703 273.085 215.583 267.984 215.583C262.883 215.583 258.749 219.703 258.749 224.787C258.749 229.87 262.883 233.991 267.984 233.991Z" fill="#65617D"/>
<path d="M256.804 202.019L266.37 223.575C266.513 223.898 266.745 224.174 267.039 224.37C267.334 224.566 267.679 224.674 268.033 224.681C268.387 224.688 268.736 224.594 269.038 224.41C269.34 224.226 269.583 223.96 269.739 223.643L281.108 200.565L256.804 202.019Z" fill="#3F3D56"/>
<path d="M213.3 161.086H152.54V194.511H213.3V161.086Z" fill="#65617D"/>
<path opacity="0.1" d="M192.399 166.898H173.927V170.774H192.399V166.898Z" fill="black"/>
<path opacity="0.1" d="M190.089 167.383H176.236V170.289H190.089V167.383Z" fill="black"/>
<path d="M275.032 161.086H214.272V194.511H275.032V161.086Z" fill="#65617D"/>
<path opacity="0.1" d="M254.13 166.898H235.659V170.774H254.13V166.898Z" fill="black"/>
<path opacity="0.1" d="M251.822 167.383H237.969V170.289H251.822V167.383Z" fill="black"/>
<path d="M213.3 126.691H152.54V160.116H213.3V126.691Z" fill="#65617D"/>
<path opacity="0.1" d="M192.399 132.505H173.927V136.38H192.399V132.505Z" fill="black"/>
<path opacity="0.1" d="M190.089 132.989H176.236V135.895H190.089V132.989Z" fill="black"/>
<path d="M275.032 126.691H214.272V160.116H275.032V126.691Z" fill="#65617D"/>
<path opacity="0.1" d="M254.13 132.505H235.659V136.38H254.13V132.505Z" fill="black"/>
<path opacity="0.1" d="M251.822 132.989H237.969V135.895H251.822V132.989Z" fill="black"/>
<path d="M213.3 91.8137H152.54V125.239H213.3V91.8137Z" fill="#65617D"/>
<path opacity="0.1" d="M192.399 97.6265H173.927V101.502H192.399V97.6265Z" fill="black"/>
<path opacity="0.1" d="M190.089 98.1111H176.236V101.018H190.089V98.1111Z" fill="black"/>
<path d="M275.032 91.8137H214.272V125.239H275.032V91.8137Z" fill="#65617D"/>
<path opacity="0.1" d="M254.13 97.6265H235.659V101.502H254.13V97.6265Z" fill="black"/>
<path opacity="0.1" d="M251.822 98.1111H237.969V101.018H251.822V98.1111Z" fill="black"/>
<path d="M275.032 56.9353H214.272V90.3601H275.032V56.9353Z" fill="#65617D"/>
<path opacity="0.1" d="M254.13 62.748H235.659V66.6233H254.13V62.748Z" fill="black"/>
<path opacity="0.1" d="M251.822 63.2329H237.969V66.1393H251.822V63.2329Z" fill="black"/>
<path d="M365.498 21.7073C373.125 18.4918 372.244 30.0354 372.244 30.0354L373.697 32.7864L380.111 20.6391C383.968 8.85615 370.482 2.08639 370.482 2.08639C366.087 -3.07206 357.24 2.96469 357.24 2.96469C344.489 0.144008 350.646 10.8569 350.646 10.8569C350.646 10.8569 354.993 10.9557 354.993 14.463C354.993 17.9702 359.732 17.7255 359.732 17.7255L363.444 24.2041L365.498 21.7204V21.7085V21.7073Z" fill="#090814"/>
</g>
<defs>
<clipPath id="clip0_433_2543">
<rect width="478" height="242" fill="white"/>
</clipPath>
</defs>
</svg>
