<svg width="24" height="24" viewBox="0 0 24 24" fill="none" xmlns="http://www.w3.org/2000/svg">
<path fill-rule="evenodd" clip-rule="evenodd" d="M18.35 2C19.131 2 19.907 2.47 20.175 3.305L20.251 3.551L20.33 3.831L20.41 4.147L20.487 4.493L20.56 4.869L20.594 5.067L20.655 5.484C20.885 7.274 20.812 9.714 19.533 12.189L19.374 12.486C18.032 14.901 18.129 17.332 18.432 18.911L18.506 19.26L18.544 19.422L18.621 19.722L18.698 19.984C18.972 20.874 18.38 21.906 17.371 21.994L17.231 22H5.65002C4.87002 22 4.09302 21.53 3.82502 20.695L3.75002 20.449L3.67002 20.169L3.59002 19.853L3.51302 19.507L3.44002 19.131C3.41602 19.001 3.39402 18.8667 3.37402 18.728L3.31902 18.298L3.27702 17.844C3.15002 16.14 3.34202 13.989 4.46702 11.811L4.62602 11.514C5.96802 9.1 5.87002 6.668 5.56802 5.09L5.49502 4.741L5.45602 4.579L5.37902 4.279L5.30202 4.017C5.02802 3.127 5.62002 2.095 6.62902 2.007L6.77002 2H18.35ZM12 12H9.00002C8.7348 12 8.48045 12.1054 8.29291 12.2929C8.10537 12.4804 8.00002 12.7348 8.00002 13C8.00002 13.2652 8.10537 13.5196 8.29291 13.7071C8.48045 13.8946 8.7348 14 9.00002 14H12C12.2652 14 12.5196 13.8946 12.7071 13.7071C12.8947 13.5196 13 13.2652 13 13C13 12.7348 12.8947 12.4804 12.7071 12.2929C12.5196 12.1054 12.2652 12 12 12ZM16 8H10C9.74514 8.00028 9.49998 8.09788 9.31465 8.27285C9.12931 8.44782 9.01778 8.68695 9.00284 8.94139C8.98791 9.19584 9.07069 9.44638 9.23428 9.64183C9.39787 9.83729 9.62992 9.9629 9.88302 9.993L10 10H16C16.2549 9.99972 16.5 9.90212 16.6854 9.72715C16.8707 9.55218 16.9823 9.31305 16.9972 9.05861C17.0121 8.80416 16.9293 8.55362 16.7658 8.35817C16.6022 8.16271 16.3701 8.0371 16.117 8.007L16 8Z" fill="#86949F"/>
</svg>
