<svg width="24" height="24" viewBox="0 0 24 24" fill="none" xmlns="http://www.w3.org/2000/svg">
<path d="M21.706 5.292L18.707 2.293C18.5195 2.10545 18.2652 2.00006 18 2H6C5.73481 2.00006 5.48049 2.10545 5.293 2.293L2.294 5.292C2.20084 5.38487 2.12691 5.49522 2.07646 5.61671C2.02601 5.7382 2.00003 5.86845 2 6V19C2 20.103 2.897 21 4 21H20C21.103 21 22 20.103 22 19V6C22 5.86845 21.974 5.7382 21.9235 5.61671C21.8731 5.49522 21.7992 5.38487 21.706 5.292ZM6.414 4H17.586L18.586 5H5.414L6.414 4ZM12 18L7 13H10V10H14V13H17L12 18Z" fill="#86949F"/>
</svg>
