<svg width="24" height="24" viewBox="0 0 24 24" fill="none" xmlns="http://www.w3.org/2000/svg">
<path d="M12 15L15 12M15 12L12 9M15 12H4M9 7.249V7.2C9 6.08 9 5.52 9.218 5.092C9.41 4.715 9.715 4.41 10.092 4.218C10.52 4 11.08 4 12.2 4H16.8C17.92 4 18.48 4 18.907 4.218C19.284 4.41 19.59 4.715 19.782 5.092C20 5.519 20 6.079 20 7.197V16.804C20 17.922 20 18.481 19.782 18.908C19.59 19.2845 19.2837 19.5904 18.907 19.782C18.48 20 17.921 20 16.803 20H12.197C11.079 20 10.519 20 10.092 19.782C9.71569 19.5903 9.40974 19.2843 9.218 18.908C9 18.48 9 17.92 9 16.8V16.75" stroke="#E61919" stroke-width="2" stroke-linecap="round" stroke-linejoin="round"/>
</svg>
