<svg width="21" height="24" viewBox="0 0 21 24" fill="none" xmlns="http://www.w3.org/2000/svg">
<g clip-path="url(#clip0_349_110)">
<path d="M10.5 12C13.8141 12 16.5 9.31406 16.5 6C16.5 2.68594 13.8141 0 10.5 0C7.18594 0 4.5 2.68594 4.5 6C4.5 9.31406 7.18594 12 10.5 12ZM14.9906 13.5281L12.75 22.5L11.25 16.125L12.75 13.5H8.25L9.75 16.125L8.25 22.5L6.00937 13.5281C2.66719 13.6875 0 16.4203 0 19.8V21.75C0 22.9922 1.00781 24 2.25 24H18.75C19.9922 24 21 22.9922 21 21.75V19.8C21 16.4203 18.3328 13.6875 14.9906 13.5281Z" fill="#86949F"/>
</g>
<defs>
<clipPath id="clip0_349_110">
<rect width="21" height="24" fill="white"/>
</clipPath>
</defs>
</svg>
