<svg width="24" height="19" viewBox="0 0 24 19" fill="none" xmlns="http://www.w3.org/2000/svg">
<g clip-path="url(#clip0_349_114)">
<path d="M22.8938 13.8529C22.9913 13.3297 22.9913 12.7953 22.8938 12.2721L23.8612 11.7191C23.9738 11.6561 24.0225 11.5262 23.985 11.4037C23.7337 10.6021 23.3025 9.8748 22.74 9.27363C22.6538 9.18086 22.515 9.15859 22.4025 9.22168L21.435 9.77461C21.0263 9.42949 20.5575 9.1623 20.0513 8.98418V7.87832C20.0513 7.75215 19.9613 7.64082 19.8375 7.61484C19.0013 7.4293 18.15 7.43672 17.355 7.61484C17.2313 7.64082 17.1413 7.75215 17.1413 7.87832V8.98418C16.635 9.1623 16.1663 9.42949 15.7575 9.77461L14.79 9.22168C14.6813 9.15859 14.5388 9.18086 14.4525 9.27363C13.89 9.8748 13.4588 10.6021 13.2075 11.4037C13.17 11.5262 13.2225 11.6561 13.3313 11.7191L14.2987 12.2721C14.2013 12.7953 14.2013 13.3297 14.2987 13.8529L13.3313 14.4059C13.2188 14.4689 13.17 14.5988 13.2075 14.7213C13.4588 15.5229 13.89 16.2465 14.4525 16.8514C14.5388 16.9441 14.6775 16.9664 14.79 16.9033L15.7575 16.3504C16.1663 16.6955 16.635 16.9627 17.1413 17.1408V18.2467C17.1413 18.3729 17.2313 18.4842 17.355 18.5102C18.1912 18.6957 19.0425 18.6883 19.8375 18.5102C19.9613 18.4842 20.0513 18.3729 20.0513 18.2467V17.1408C20.5575 16.9627 21.0263 16.6955 21.435 16.3504L22.4025 16.9033C22.5113 16.9664 22.6538 16.9441 22.74 16.8514C23.3025 16.2502 23.7337 15.5229 23.985 14.7213C24.0225 14.5988 23.97 14.4689 23.8612 14.4059L22.8938 13.8529ZM18.6 14.8623C17.595 14.8623 16.7812 14.0533 16.7812 13.0625C16.7812 12.0717 17.5988 11.2627 18.6 11.2627C19.6013 11.2627 20.4188 12.0717 20.4188 13.0625C20.4188 14.0533 19.605 14.8623 18.6 14.8623ZM8.4 9.5C11.0513 9.5 13.2 7.37363 13.2 4.75C13.2 2.12637 11.0513 0 8.4 0C5.74875 0 3.6 2.12637 3.6 4.75C3.6 7.37363 5.74875 9.5 8.4 9.5ZM15.945 17.9053C15.8588 17.8607 15.7725 17.8088 15.69 17.7605L15.3938 17.9312C15.1688 18.0574 14.9138 18.1279 14.6588 18.1279C14.25 18.1279 13.8563 17.9572 13.575 17.6604C12.8888 16.9256 12.3638 16.0312 12.0675 15.0775C11.8612 14.4207 12.1388 13.7268 12.7388 13.3816L13.035 13.2109C13.0313 13.1145 13.0313 13.018 13.035 12.9215L12.7388 12.7508C12.1388 12.4094 11.8612 11.7117 12.0675 11.0549C12.1012 10.9473 12.15 10.8396 12.1875 10.732C12.045 10.7209 11.9063 10.6875 11.76 10.6875H11.1337C10.3013 11.066 9.375 11.2812 8.4 11.2812C7.425 11.2812 6.5025 11.066 5.66625 10.6875H5.04C2.2575 10.6875 0 12.9215 0 15.675V17.2188C0 18.2021 0.80625 19 1.8 19H15C15.3788 19 15.7313 18.8813 16.02 18.6846C15.975 18.5436 15.945 18.3988 15.945 18.2467V17.9053Z" fill="#86949F"/>
</g>
<defs>
<clipPath id="clip0_349_114">
<rect width="24" height="19" fill="white"/>
</clipPath>
</defs>
</svg>
